<?xml version="1.0" standalone="no"?>
<!DOCTYPE svg PUBLIC "-//W3C//DTD SVG 20010904//EN"
 "http://www.w3.org/TR/2001/REC-SVG-20010904/DTD/svg10.dtd">
<svg version="1.0" xmlns="http://www.w3.org/2000/svg"
 width="115.000000pt" height="57.000000pt" viewBox="0 0 115.000000 57.000000"
 preserveAspectRatio="xMidYMid meet">

<g transform="translate(0.000000,57.000000) scale(0.100000,-0.100000)"
fill="#000000" stroke="none">
<path d="M0 285 l0 -285 575 0 575 0 0 285 0 285 -575 0 -575 0 0 -285z m452
73 c15 -5 29 -16 32 -24 3 -8 17 -14 31 -14 25 0 83 -46 72 -56 -3 -3 -15 4
-26 15 -14 14 -34 21 -61 21 -30 0 -38 3 -34 14 9 24 -51 49 -97 41 -47 -8
-52 1 -6 13 32 9 41 8 89 -10z m469 -37 c13 -11 20 -23 16 -28 -5 -4 -13 0
-18 10 -13 22 -65 23 -73 1 -11 -28 -7 -34 38 -54 44 -18 75 -53 57 -64 -5 -3
-11 3 -14 14 -3 11 -23 26 -46 36 -49 19 -67 45 -51 73 18 35 57 40 91 12z
m-168 2 c-29 -4 -33 -8 -35 -36 l-1 -32 -4 32 c-4 27 -9 32 -36 36 -18 2 0 4
38 4 39 0 55 -2 38 -4z"/>
</g>
</svg>
